{"asset":{"version":"2.0","generator":"Blockbench 5.1.6 glTF exporter"},"scenes":[{"nodes":[5],"name":"blockbench_export"}],"scene":0,"nodes":[{"name":"head","mesh":0},{"name":"look_yaw","children":[0]},{"translation":[0,3.75,0],"name":"look_pitch","children":[1]},{"translation":[0,0.625,0],"name":"neck","mesh":1},{"translation":[-0.3125,2.5,0.3125],"name":"neck","children":[3]},{"translation":[0,10.625,-0.3125],"name":"body","children":[2,4]}],"bufferViews":[{"buffer":0,"byteOffset":0,"byteLength":288,"target":34962,"byteStride":12},{"buffer":0,"byteOffset":288,"byteLength":288,"target":34962,"byteStride":12},{"buffer":0,"byteOffset":576,"byteLength":192,"target":34962,"byteStride":8},{"buffer":0,"byteOffset":768,"byteLength":72,"target":34963},{"buffer":0,"byteOffset":840,"byteLength":288,"target":34962,"byteStride":12},{"buffer":0,"byteOffset":1128,"byteLength":288,"target":34962,"byteStride":12},{"buffer":0,"byteOffset":1416,"byteLength":192,"target":34962,"byteStride":8},{"buffer":0,"byteOffset":1608,"byteLength":72,"target":34963},{"buffer":0,"byteOffset":1680,"byteLength":8},{"buffer":0,"byteOffset":1688,"byteLength":32},{"buffer":0,"byteOffset":1720,"byteLength":8},{"buffer":0,"byteOffset":1728,"byteLength":32},{"buffer":0,"byteOffset":1760,"byteLength":8},{"buffer":0,"byteOffset":1768,"byteLength":32},{"buffer":0,"byteOffset":1800,"byteLength":8},{"buffer":0,"byteOffset":1808,"byteLength":32},{"buffer":0,"byteOffset":1840,"byteLength":8},{"buffer":0,"byteOffset":1848,"byteLength":32},{"buffer":0,"byteOffset":1880,"byteLength":12},{"buffer":0,"byteOffset":1892,"byteLength":48},{"buffer":0,"byteOffset":1940,"byteLength":12},{"buffer":0,"byteOffset":1952,"byteLength":48},{"buffer":0,"byteOffset":2000,"byteLength":12},{"buffer":0,"byteOffset":2012,"byteLength":48}],"buffers":[{"byteLength":2060,"uri":"data:application/octet-stream;base64,"}],"accessors":[{"bufferView":0,"componentType":5126,"count":24,"max":[1.25,2.5,1.25],"min":[-1.25,0,-1.25],"type":"VEC3"},{"bufferView":1,"componentType":5126,"count":24,"max":[1,1,1],"min":[-1,-1,-1],"type":"VEC3"},{"bufferView":2,"componentType":5126,"count":24,"max":[0.359375,0.296875],"min":[0.125,0.0625],"type":"VEC2"},{"bufferView":3,"componentType":5123,"count":36,"max":[23],"min":[0],"type":"SCALAR"},{"bufferView":4,"componentType":5126,"count":24,"max":[1.09375,1.25,0.46875],"min":[-0.46875,-0.625,-1.09375],"type":"VEC3"},{"bufferView":5,"componentType":5126,"count":24,"max":[1,1,1],"min":[-1,-1,-1],"type":"VEC3"},{"bufferView":6,"componentType":5126,"count":24,"max":[0.6640625,0.8984375],"min":[0,0.21875],"type":"VEC2"},{"bufferView":7,"componentType":5123,"count":36,"max":[23],"min":[0],"type":"SCALAR"},{"bufferView":8,"componentType":5126,"count":2,"max":[1],"min":[0],"type":"SCALAR"},{"bufferView":9,"componentType":5126,"count":2,"max":[0,0,0,1],"min":[0,0,0,1],"type":"VEC4"},{"bufferView":10,"componentType":5126,"count":2,"max":[1],"min":[0],"type":"SCALAR"},{"bufferView":11,"componentType":5126,"count":2,"max":[0,0,0,1],"min":[0,0,0,1],"type":"VEC4"},{"bufferView":12,"componentType":5126,"count":2,"max":[1],"min":[0],"type":"SCALAR"},{"bufferView":13,"componentType":5126,"count":2,"max":[0,0,0,1],"min":[0,0,0,1],"type":"VEC4"},{"bufferView":14,"componentType":5126,"count":2,"max":[1],"min":[0],"type":"SCALAR"},{"bufferView":15,"componentType":5126,"count":2,"max":[0,0,0,1],"min":[0,0,0,1],"type":"VEC4"},{"bufferView":16,"componentType":5126,"count":2,"max":[1],"min":[0],"type":"SCALAR"},{"bufferView":17,"componentType":5126,"count":2,"max":[-0.06540312618017197,0,0,0.9978589415550232],"min":[-0.06540312618017197,0,0,0.9978589415550232],"type":"VEC4"},{"bufferView":18,"componentType":5126,"count":3,"max":[1],"min":[0],"type":"SCALAR"},{"bufferView":19,"componentType":5126,"count":3,"max":[0,0.7071067690849304,0,1],"min":[0,-0.7071067690849304,0,0.7071067690849304],"type":"VEC4"},{"bufferView":20,"componentType":5126,"count":3,"max":[1],"min":[0],"type":"SCALAR"},{"bufferView":21,"componentType":5126,"count":3,"max":[0.7071067690849304,0,0,1],"min":[-0.7071067690849304,0,0,0.7071067690849304],"type":"VEC4"},{"bufferView":22,"componentType":5126,"count":3,"max":[1],"min":[0],"type":"SCALAR"},{"bufferView":23,"componentType":5126,"count":3,"max":[0.19509032368659973,0,0,1],"min":[-0.19509032368659973,0,0,0.9807852506637573],"type":"VEC4"}],"materials":[{"pbrMetallicRoughness":{"metallicFactor":0,"roughnessFactor":1,"baseColorTexture":{"index":0}},"alphaMode":"MASK","alphaCutoff":0.05,"doubleSided":true}],"textures":[{"sampler":0,"source":0,"name":"infdev_player.png"}],"samplers":[{"magFilter":9728,"minFilter":9728,"wrapS":33071,"wrapT":33071}],"images":[{"mimeType":"image/png","name":"infdev_player.png","uri":"infdev_player.png"}],"meshes":[{"primitives":[{"mode":4,"attributes":{"POSITION":0,"NORMAL":1,"TEXCOORD_0":2},"indices":3,"material":0}]},{"primitives":[{"mode":4,"attributes":{"POSITION":4,"NORMAL":5,"TEXCOORD_0":6},"indices":7,"material":0}]}],"animations":[{"name":"idle","samplers":[{"input":8,"output":9,"interpolation":"LINEAR"}],"channels":[{"sampler":0,"target":{"node":5,"path":"rotation"}}]},{"name":"mine","samplers":[{"input":10,"output":11,"interpolation":"LINEAR"}],"channels":[{"sampler":0,"target":{"node":5,"path":"rotation"}}]},{"name":"walk","samplers":[{"input":12,"output":13,"interpolation":"LINEAR"}],"channels":[{"sampler":0,"target":{"node":5,"path":"rotation"}}]},{"name":"mine_walk","samplers":[{"input":14,"output":15,"interpolation":"LINEAR"}],"channels":[{"sampler":0,"target":{"node":5,"path":"rotation"}}]},{"name":"run","samplers":[{"input":16,"output":17,"interpolation":"LINEAR"}],"channels":[{"sampler":0,"target":{"node":5,"path":"rotation"}}]},{"name":"look_yaw","samplers":[{"input":18,"output":19,"interpolation":"LINEAR"}],"channels":[{"sampler":0,"target":{"node":1,"path":"rotation"}}]},{"name":"look_pitch","samplers":[{"input":20,"output":21,"interpolation":"LINEAR"},{"input":22,"output":23,"interpolation":"LINEAR"}],"channels":[{"sampler":0,"target":{"node":2,"path":"rotation"}},{"sampler":1,"target":{"node":4,"path":"rotation"}}]}]}