{"asset":{"version":"2.0","generator":"Blockbench 5.1.6 glTF exporter"},"scenes":[{"nodes":[24],"name":"blockbench_export"}],"scene":0,"nodes":[{"translation":[-0.3125,3.125,0.3125],"name":"neck","mesh":0},{"translation":[0,-1.875,0],"name":"right_forearm","mesh":1},{"translation":[0.625,-3.75,0],"name":"right_elbow","children":[1]},{"translation":[0.625,-1.875,0],"name":"right_upper_arm","mesh":2},{"translation":[1.875,3.125,0],"name":"right_shoulder","children":[2,3]},{"translation":[0,-2.8125,-0.625],"name":"right_foot","mesh":3},{"translation":[0,-4.0625,0],"name":"right_ankle","children":[5]},{"translation":[0,-2.34375,0],"name":"right_shin","mesh":4},{"translation":[0,-4.0625,0],"name":"right_knee","children":[6,7]},{"translation":[-0.625,-2.96875,0],"name":"right_thigh","mesh":5},{"translation":[0.9375,-2.5,0],"name":"right_hip","children":[8,9]},{"translation":[0,-2.8125,-0.625],"name":"left_foot","mesh":6},{"translation":[0,-4.0625,0],"name":"left_ankle","children":[11]},{"translation":[0,-2.34375,0],"name":"left_shin","mesh":7},{"translation":[0,-4.0625,0],"name":"left_knee","children":[12,13]},{"translation":[-0.625,-2.96875,0],"name":"left_thigh","mesh":8},{"translation":[-0.9375,-2.5,0],"name":"left_hip","children":[14,15]},{"translation":[0,0,-0.3125],"name":"head","mesh":9},{"translation":[0,3.75,0],"name":"head","children":[17]},{"translation":[0,-1.5625,0],"name":"left_forearm","mesh":10},{"translation":[-0.625,-3.75,0],"name":"left_elbow","children":[19]},{"translation":[-0.625,-0.9375,0],"name":"left_upper_arm","mesh":11},{"translation":[-1.875,2.8125,0],"name":"left_shoulder","children":[20,21]},{"translation":[0,-2.5,0.3125],"name":"body","mesh":12},{"translation":[0,11.25,-0.3125],"name":"body","children":[0,4,10,16,18,22,23]}],"bufferViews":[{"buffer":0,"byteOffset":0,"byteLength":240,"target":34962,"byteStride":12},{"buffer":0,"byteOffset":240,"byteLength":240,"target":34962,"byteStride":12},{"buffer":0,"byteOffset":480,"byteLength":160,"target":34962,"byteStride":8},{"buffer":0,"byteOffset":640,"byteLength":60,"target":34963},{"buffer":0,"byteOffset":700,"byteLength":288,"target":34962,"byteStride":12},{"buffer":0,"byteOffset":988,"byteLength":288,"target":34962,"byteStride":12},{"buffer":0,"byteOffset":1276,"byteLength":192,"target":34962,"byteStride":8},{"buffer":0,"byteOffset":1468,"byteLength":72,"target":34963},{"buffer":0,"byteOffset":1540,"byteLength":288,"target":34962,"byteStride":12},{"buffer":0,"byteOffset":1828,"byteLength":288,"target":34962,"byteStride":12},{"buffer":0,"byteOffset":2116,"byteLength":192,"target":34962,"byteStride":8},{"buffer":0,"byteOffset":2308,"byteLength":72,"target":34963},{"buffer":0,"byteOffset":2380,"byteLength":288,"target":34962,"byteStride":12},{"buffer":0,"byteOffset":2668,"byteLength":288,"target":34962,"byteStride":12},{"buffer":0,"byteOffset":2956,"byteLength":192,"target":34962,"byteStride":8},{"buffer":0,"byteOffset":3148,"byteLength":72,"target":34963},{"buffer":0,"byteOffset":3220,"byteLength":288,"target":34962,"byteStride":12},{"buffer":0,"byteOffset":3508,"byteLength":288,"target":34962,"byteStride":12},{"buffer":0,"byteOffset":3796,"byteLength":192,"target":34962,"byteStride":8},{"buffer":0,"byteOffset":3988,"byteLength":72,"target":34963},{"buffer":0,"byteOffset":4060,"byteLength":288,"target":34962,"byteStride":12},{"buffer":0,"byteOffset":4348,"byteLength":288,"target":34962,"byteStride":12},{"buffer":0,"byteOffset":4636,"byteLength":192,"target":34962,"byteStride":8},{"buffer":0,"byteOffset":4828,"byteLength":72,"target":34963},{"buffer":0,"byteOffset":4900,"byteLength":288,"target":34962,"byteStride":12},{"buffer":0,"byteOffset":5188,"byteLength":288,"target":34962,"byteStride":12},{"buffer":0,"byteOffset":5476,"byteLength":192,"target":34962,"byteStride":8},{"buffer":0,"byteOffset":5668,"byteLength":72,"target":34963},{"buffer":0,"byteOffset":5740,"byteLength":288,"target":34962,"byteStride":12},{"buffer":0,"byteOffset":6028,"byteLength":288,"target":34962,"byteStride":12},{"buffer":0,"byteOffset":6316,"byteLength":192,"target":34962,"byteStride":8},{"buffer":0,"byteOffset":6508,"byteLength":72,"target":34963},{"buffer":0,"byteOffset":6580,"byteLength":288,"target":34962,"byteStride":12},{"buffer":0,"byteOffset":6868,"byteLength":288,"target":34962,"byteStride":12},{"buffer":0,"byteOffset":7156,"byteLength":192,"target":34962,"byteStride":8},{"buffer":0,"byteOffset":7348,"byteLength":72,"target":34963},{"buffer":0,"byteOffset":7420,"byteLength":288,"target":34962,"byteStride":12},{"buffer":0,"byteOffset":7708,"byteLength":288,"target":34962,"byteStride":12},{"buffer":0,"byteOffset":7996,"byteLength":192,"target":34962,"byteStride":8},{"buffer":0,"byteOffset":8188,"byteLength":72,"target":34963},{"buffer":0,"byteOffset":8260,"byteLength":288,"target":34962,"byteStride":12},{"buffer":0,"byteOffset":8548,"byteLength":288,"target":34962,"byteStride":12},{"buffer":0,"byteOffset":8836,"byteLength":192,"target":34962,"byteStride":8},{"buffer":0,"byteOffset":9028,"byteLength":72,"target":34963},{"buffer":0,"byteOffset":9100,"byteLength":288,"target":34962,"byteStride":12},{"buffer":0,"byteOffset":9388,"byteLength":288,"target":34962,"byteStride":12},{"buffer":0,"byteOffset":9676,"byteLength":192,"target":34962,"byteStride":8},{"buffer":0,"byteOffset":9868,"byteLength":72,"target":34963},{"buffer":0,"byteOffset":9940,"byteLength":288,"target":34962,"byteStride":12},{"buffer":0,"byteOffset":10228,"byteLength":288,"target":34962,"byteStride":12},{"buffer":0,"byteOffset":10516,"byteLength":192,"target":34962,"byteStride":8},{"buffer":0,"byteOffset":10708,"byteLength":72,"target":34963},{"buffer":0,"byteOffset":10780,"byteLength":24},{"buffer":0,"byteOffset":10804,"byteLength":96},{"buffer":0,"byteOffset":10900,"byteLength":24},{"buffer":0,"byteOffset":10924,"byteLength":72},{"buffer":0,"byteOffset":10996,"byteLength":24},{"buffer":0,"byteOffset":11020,"byteLength":72},{"buffer":0,"byteOffset":11092,"byteLength":40},{"buffer":0,"byteOffset":11132,"byteLength":160},{"buffer":0,"byteOffset":11292,"byteLength":28},{"buffer":0,"byteOffset":11320,"byteLength":84},{"buffer":0,"byteOffset":11404,"byteLength":24},{"buffer":0,"byteOffset":11428,"byteLength":72},{"buffer":0,"byteOffset":11500,"byteLength":28},{"buffer":0,"byteOffset":11528,"byteLength":112},{"buffer":0,"byteOffset":11640,"byteLength":24},{"buffer":0,"byteOffset":11664,"byteLength":72},{"buffer":0,"byteOffset":11736,"byteLength":24},{"buffer":0,"byteOffset":11760,"byteLength":72},{"buffer":0,"byteOffset":11832,"byteLength":36},{"buffer":0,"byteOffset":11868,"byteLength":144},{"buffer":0,"byteOffset":12012,"byteLength":28},{"buffer":0,"byteOffset":12040,"byteLength":84},{"buffer":0,"byteOffset":12124,"byteLength":24},{"buffer":0,"byteOffset":12148,"byteLength":72},{"buffer":0,"byteOffset":12220,"byteLength":28},{"buffer":0,"byteOffset":12248,"byteLength":112},{"buffer":0,"byteOffset":12360,"byteLength":24},{"buffer":0,"byteOffset":12384,"byteLength":72},{"buffer":0,"byteOffset":12456,"byteLength":24},{"buffer":0,"byteOffset":12480,"byteLength":72},{"buffer":0,"byteOffset":12552,"byteLength":32},{"buffer":0,"byteOffset":12584,"byteLength":128},{"buffer":0,"byteOffset":12712,"byteLength":24},{"buffer":0,"byteOffset":12736,"byteLength":72},{"buffer":0,"byteOffset":12808,"byteLength":24},{"buffer":0,"byteOffset":12832,"byteLength":72},{"buffer":0,"byteOffset":12904,"byteLength":36},{"buffer":0,"byteOffset":12940,"byteLength":144},{"buffer":0,"byteOffset":13084,"byteLength":28},{"buffer":0,"byteOffset":13112,"byteLength":84},{"buffer":0,"byteOffset":13196,"byteLength":28},{"buffer":0,"byteOffset":13224,"byteLength":84},{"buffer":0,"byteOffset":13308,"byteLength":32},{"buffer":0,"byteOffset":13340,"byteLength":128},{"buffer":0,"byteOffset":13468,"byteLength":24},{"buffer":0,"byteOffset":13492,"byteLength":72},{"buffer":0,"byteOffset":13564,"byteLength":24},{"buffer":0,"byteOffset":13588,"byteLength":72},{"buffer":0,"byteOffset":13660,"byteLength":36},{"buffer":0,"byteOffset":13696,"byteLength":144},{"buffer":0,"byteOffset":13840,"byteLength":28},{"buffer":0,"byteOffset":13868,"byteLength":84},{"buffer":0,"byteOffset":13952,"byteLength":28},{"buffer":0,"byteOffset":13980,"byteLength":84},{"buffer":0,"byteOffset":14064,"byteLength":24},{"buffer":0,"byteOffset":14088,"byteLength":96},{"buffer":0,"byteOffset":14184,"byteLength":28},{"buffer":0,"byteOffset":14212,"byteLength":84},{"buffer":0,"byteOffset":14296,"byteLength":24},{"buffer":0,"byteOffset":14320,"byteLength":72}],"buffers":[{"byteLength":14392,"uri":"data:application/octet-stream;base64,"}],"accessors":[{"bufferView":0,"componentType":5126,"count":20,"max":[1.09375,0.625,0.46875],"min":[-0.46875,0,-1.09375],"type":"VEC3"},{"bufferView":1,"componentType":5126,"count":20,"max":[1,0,1],"min":[-1,-1,-1],"type":"VEC3"},{"bufferView":2,"componentType":5126,"count":20,"max":[0.6640625,0.640625],"min":[0.203125,0.1875],"type":"VEC2"},{"bufferView":3,"componentType":5123,"count":30,"max":[19],"min":[0],"type":"SCALAR"},{"bufferView":4,"componentType":5126,"count":24,"max":[0.625,1.875,0.625],"min":[-0.625,-1.875,-0.625],"type":"VEC3"},{"bufferView":5,"componentType":5126,"count":24,"max":[1,1,1],"min":[-1,-1,-1],"type":"VEC3"},{"bufferView":6,"componentType":5126,"count":24,"max":[0.640625,0.640625],"min":[0.234375,0],"type":"VEC2"},{"bufferView":7,"componentType":5123,"count":36,"max":[23],"min":[0],"type":"SCALAR"},{"bufferView":8,"componentType":5126,"count":24,"max":[0.625,1.875,0.625],"min":[-0.625,-1.875,-0.625],"type":"VEC3"},{"bufferView":9,"componentType":5126,"count":24,"max":[1,1,1],"min":[-1,-1,-1],"type":"VEC3"},{"bufferView":10,"componentType":5126,"count":24,"max":[0.640625,0.578125],"min":[0.1875,0],"type":"VEC2"},{"bufferView":11,"componentType":5123,"count":36,"max":[23],"min":[0],"type":"SCALAR"},{"bufferView":12,"componentType":5126,"count":24,"max":[0.78125,2.8125,1.40625],"min":[-0.78125,2.1875,-1.40625],"type":"VEC3"},{"bufferView":13,"componentType":5126,"count":24,"max":[1,1,1],"min":[-1,-1,-1],"type":"VEC3"},{"bufferView":14,"componentType":5126,"count":24,"max":[0.6640625,0.6171875],"min":[0.09375,0.0625],"type":"VEC2"},{"bufferView":15,"componentType":5123,"count":36,"max":[23],"min":[0],"type":"SCALAR"},{"bufferView":16,"componentType":5126,"count":24,"max":[0.78125,1.71875,0.78125],"min":[-0.78125,-1.71875,-0.78125],"type":"VEC3"},{"bufferView":17,"componentType":5126,"count":24,"max":[1,1,1],"min":[-1,-1,-1],"type":"VEC3"},{"bufferView":18,"componentType":5126,"count":24,"max":[0.6015625,0.4609375],"min":[0,0],"type":"VEC2"},{"bufferView":19,"componentType":5123,"count":36,"max":[23],"min":[0],"type":"SCALAR"},{"bufferView":20,"componentType":5126,"count":24,"max":[1.40625,1.71875,0.78125],"min":[-0.15625,-1.71875,-0.78125],"type":"VEC3"},{"bufferView":21,"componentType":5126,"count":24,"max":[1,1,1],"min":[-1,-1,-1],"type":"VEC3"},{"bufferView":22,"componentType":5126,"count":24,"max":[0.6015625,0.5859375],"min":[0.125,0.140625],"type":"VEC2"},{"bufferView":23,"componentType":5123,"count":36,"max":[23],"min":[0],"type":"SCALAR"},{"bufferView":24,"componentType":5126,"count":24,"max":[0.78125,2.8125,1.40625],"min":[-0.78125,2.1875,-1.40625],"type":"VEC3"},{"bufferView":25,"componentType":5126,"count":24,"max":[1,1,1],"min":[-1,-1,-1],"type":"VEC3"},{"bufferView":26,"componentType":5126,"count":24,"max":[0.6640625,0.6171875],"min":[0.40625,0.3125],"type":"VEC2"},{"bufferView":27,"componentType":5123,"count":36,"max":[23],"min":[0],"type":"SCALAR"},{"bufferView":28,"componentType":5126,"count":24,"max":[0.78125,1.71875,0.78125],"min":[-0.78125,-1.71875,-0.78125],"type":"VEC3"},{"bufferView":29,"componentType":5126,"count":24,"max":[1,1,1],"min":[-1,-1,-1],"type":"VEC3"},{"bufferView":30,"componentType":5126,"count":24,"max":[0.6328125,0.6328125],"min":[0,0],"type":"VEC2"},{"bufferView":31,"componentType":5123,"count":36,"max":[23],"min":[0],"type":"SCALAR"},{"bufferView":32,"componentType":5126,"count":24,"max":[1.40625,1.71875,0.78125],"min":[-0.15625,-1.71875,-0.78125],"type":"VEC3"},{"bufferView":33,"componentType":5126,"count":24,"max":[1,1,1],"min":[-1,-1,-1],"type":"VEC3"},{"bufferView":34,"componentType":5126,"count":24,"max":[0.4453125,0.6171875],"min":[0.1875,0.109375],"type":"VEC2"},{"bufferView":35,"componentType":5123,"count":36,"max":[23],"min":[0],"type":"SCALAR"},{"bufferView":36,"componentType":5126,"count":24,"max":[1.25,2.5,1.25],"min":[-1.25,0,-1.25],"type":"VEC3"},{"bufferView":37,"componentType":5126,"count":24,"max":[1,1,1],"min":[-1,-1,-1],"type":"VEC3"},{"bufferView":38,"componentType":5126,"count":24,"max":[0.359375,0.359375],"min":[0.125,0.0625],"type":"VEC2"},{"bufferView":39,"componentType":5123,"count":36,"max":[23],"min":[0],"type":"SCALAR"},{"bufferView":40,"componentType":5126,"count":24,"max":[0.625,1.875,0.625],"min":[-0.625,-1.875,-0.625],"type":"VEC3"},{"bufferView":41,"componentType":5126,"count":24,"max":[1,1,1],"min":[-1,-1,-1],"type":"VEC3"},{"bufferView":42,"componentType":5126,"count":24,"max":[0.640625,0.625],"min":[0,0.09375],"type":"VEC2"},{"bufferView":43,"componentType":5123,"count":36,"max":[23],"min":[0],"type":"SCALAR"},{"bufferView":44,"componentType":5126,"count":24,"max":[0.625,1.25,0.625],"min":[-0.625,-2.5,-0.625],"type":"VEC3"},{"bufferView":45,"componentType":5126,"count":24,"max":[1,1,1],"min":[-1,-1,-1],"type":"VEC3"},{"bufferView":46,"componentType":5126,"count":24,"max":[0.5,0.625],"min":[0.15625,0],"type":"VEC2"},{"bufferView":47,"componentType":5123,"count":36,"max":[23],"min":[0],"type":"SCALAR"},{"bufferView":48,"componentType":5126,"count":24,"max":[1.875,5.625,0.625],"min":[-1.875,-1.25,-1.25],"type":"VEC3"},{"bufferView":49,"componentType":5126,"count":24,"max":[1,1,1],"min":[-1,-1,-1],"type":"VEC3"},{"bufferView":50,"componentType":5126,"count":24,"max":[0.3125,0.359375],"min":[0,0],"type":"VEC2"},{"bufferView":51,"componentType":5123,"count":36,"max":[23],"min":[0],"type":"SCALAR"},{"bufferView":52,"componentType":5126,"count":6,"max":[5],"min":[0],"type":"SCALAR"},{"bufferView":53,"componentType":5126,"count":6,"max":[0,0,0,1],"min":[-0.02181488461792469,0,0,0.9997619986534119],"type":"VEC4"},{"bufferView":54,"componentType":5126,"count":6,"max":[5],"min":[0],"type":"SCALAR"},{"bufferView":55,"componentType":5126,"count":6,"max":[0,11.25,-0.3125],"min":[0,11.25,-0.3125],"type":"VEC3"},{"bufferView":56,"componentType":5126,"count":6,"max":[5],"min":[0],"type":"SCALAR"},{"bufferView":57,"componentType":5126,"count":6,"max":[1,1,1],"min":[1,1,1],"type":"VEC3"},{"bufferView":58,"componentType":5126,"count":10,"max":[5],"min":[0],"type":"SCALAR"},{"bufferView":59,"componentType":5126,"count":10,"max":[0.2164396196603775,0,0,1],"min":[-0.2164396196603775,0,0,0.9762960076332092],"type":"VEC4"},{"bufferView":60,"componentType":5126,"count":7,"max":[5],"min":[0],"type":"SCALAR"},{"bufferView":61,"componentType":5126,"count":7,"max":[-1.875,2.8125,0],"min":[-1.875,2.75,0],"type":"VEC3"},{"bufferView":62,"componentType":5126,"count":6,"max":[5],"min":[0],"type":"SCALAR"},{"bufferView":63,"componentType":5126,"count":6,"max":[1,1,1],"min":[1,1,1],"type":"VEC3"},{"bufferView":64,"componentType":5126,"count":7,"max":[5],"min":[0],"type":"SCALAR"},{"bufferView":65,"componentType":5126,"count":7,"max":[0.8968727588653564,0,0,0.9997619986534119],"min":[0.02181488461792469,0,0,0.44228869676589966],"type":"VEC4"},{"bufferView":66,"componentType":5126,"count":6,"max":[5],"min":[0],"type":"SCALAR"},{"bufferView":67,"componentType":5126,"count":6,"max":[-0.625,-3.75,0],"min":[-0.625,-3.75,0],"type":"VEC3"},{"bufferView":68,"componentType":5126,"count":6,"max":[5],"min":[0],"type":"SCALAR"},{"bufferView":69,"componentType":5126,"count":6,"max":[1,1,1],"min":[1,1,1],"type":"VEC3"},{"bufferView":70,"componentType":5126,"count":9,"max":[5],"min":[0],"type":"SCALAR"},{"bufferView":71,"componentType":5126,"count":9,"max":[0.2164396196603775,0,0,1],"min":[-0.2164396196603775,0,0,0.9762960076332092],"type":"VEC4"},{"bufferView":72,"componentType":5126,"count":7,"max":[5],"min":[0],"type":"SCALAR"},{"bufferView":73,"componentType":5126,"count":7,"max":[1.875,3.125,0],"min":[1.875,3.0625,0],"type":"VEC3"},{"bufferView":74,"componentType":5126,"count":6,"max":[5],"min":[0],"type":"SCALAR"},{"bufferView":75,"componentType":5126,"count":6,"max":[1,1,1],"min":[1,1,1],"type":"VEC3"},{"bufferView":76,"componentType":5126,"count":7,"max":[5],"min":[0],"type":"SCALAR"},{"bufferView":77,"componentType":5126,"count":7,"max":[0.8968727588653564,0,0,0.9999619126319885],"min":[0.008726535364985466,0,0,0.44228869676589966],"type":"VEC4"},{"bufferView":78,"componentType":5126,"count":6,"max":[5],"min":[0],"type":"SCALAR"},{"bufferView":79,"componentType":5126,"count":6,"max":[0.625,-3.75,0],"min":[0.625,-3.75,0],"type":"VEC3"},{"bufferView":80,"componentType":5126,"count":6,"max":[5],"min":[0],"type":"SCALAR"},{"bufferView":81,"componentType":5126,"count":6,"max":[1,1,1],"min":[1,1,1],"type":"VEC3"},{"bufferView":82,"componentType":5126,"count":8,"max":[5],"min":[0],"type":"SCALAR"},{"bufferView":83,"componentType":5126,"count":8,"max":[0.2164396196603775,0,0,1],"min":[-0.2164396196603775,0,0,0.9762960076332092],"type":"VEC4"},{"bufferView":84,"componentType":5126,"count":6,"max":[5],"min":[0],"type":"SCALAR"},{"bufferView":85,"componentType":5126,"count":6,"max":[0.9375,-2.5,0],"min":[0.9375,-2.5,0],"type":"VEC3"},{"bufferView":86,"componentType":5126,"count":6,"max":[5],"min":[0],"type":"SCALAR"},{"bufferView":87,"componentType":5126,"count":6,"max":[1,1,1],"min":[1,1,1],"type":"VEC3"},{"bufferView":88,"componentType":5126,"count":9,"max":[5],"min":[0],"type":"SCALAR"},{"bufferView":89,"componentType":5126,"count":9,"max":[-0.04361938685178757,0,0,0.9990482330322266],"min":[-0.19509032368659973,0,0,0.9807852506637573],"type":"VEC4"},{"bufferView":90,"componentType":5126,"count":7,"max":[5],"min":[0],"type":"SCALAR"},{"bufferView":91,"componentType":5126,"count":7,"max":[0,-4.0625,0],"min":[0,-4.0625,0],"type":"VEC3"},{"bufferView":92,"componentType":5126,"count":7,"max":[5],"min":[0],"type":"SCALAR"},{"bufferView":93,"componentType":5126,"count":7,"max":[1,1,1],"min":[1,1,1],"type":"VEC3"},{"bufferView":94,"componentType":5126,"count":8,"max":[5],"min":[0],"type":"SCALAR"},{"bufferView":95,"componentType":5126,"count":8,"max":[0.2164396196603775,0,0,1],"min":[-0.2164396196603775,0,0,0.9762960076332092],"type":"VEC4"},{"bufferView":96,"componentType":5126,"count":6,"max":[5],"min":[0],"type":"SCALAR"},{"bufferView":97,"componentType":5126,"count":6,"max":[-0.9375,-2.5,0],"min":[-0.9375,-2.5,0],"type":"VEC3"},{"bufferView":98,"componentType":5126,"count":6,"max":[5],"min":[0],"type":"SCALAR"},{"bufferView":99,"componentType":5126,"count":6,"max":[1,1,1],"min":[1,1,1],"type":"VEC3"},{"bufferView":100,"componentType":5126,"count":9,"max":[5],"min":[0],"type":"SCALAR"},{"bufferView":101,"componentType":5126,"count":9,"max":[-0.04361938685178757,0,0,0.9990482330322266],"min":[-0.19509032368659973,0,0,0.9807852506637573],"type":"VEC4"},{"bufferView":102,"componentType":5126,"count":7,"max":[5],"min":[0],"type":"SCALAR"},{"bufferView":103,"componentType":5126,"count":7,"max":[0,-4.0625,0],"min":[0,-4.0625,0],"type":"VEC3"},{"bufferView":104,"componentType":5126,"count":7,"max":[5],"min":[0],"type":"SCALAR"},{"bufferView":105,"componentType":5126,"count":7,"max":[1,1,1],"min":[1,1,1],"type":"VEC3"},{"bufferView":106,"componentType":5126,"count":6,"max":[5],"min":[0],"type":"SCALAR"},{"bufferView":107,"componentType":5126,"count":6,"max":[0,0,0,1],"min":[0,0,0,1],"type":"VEC4"},{"bufferView":108,"componentType":5126,"count":7,"max":[5],"min":[0],"type":"SCALAR"},{"bufferView":109,"componentType":5126,"count":7,"max":[0,3.75,0],"min":[0,3.6875,0],"type":"VEC3"},{"bufferView":110,"componentType":5126,"count":6,"max":[5],"min":[0],"type":"SCALAR"},{"bufferView":111,"componentType":5126,"count":6,"max":[1,1,1],"min":[1,1,1],"type":"VEC3"}],"materials":[{"pbrMetallicRoughness":{"metallicFactor":0,"roughnessFactor":1,"baseColorTexture":{"index":0}},"alphaMode":"MASK","alphaCutoff":0.05,"doubleSided":true}],"textures":[{"sampler":0,"source":0,"name":"infdev_player"}],"samplers":[{"magFilter":9728,"minFilter":9728,"wrapS":33071,"wrapT":33071}],"images":[{"mimeType":"image/png","name":"infdev_player.png","uri":"infdev_player.png"}],"meshes":[{"primitives":[{"mode":4,"attributes":{"POSITION":0,"NORMAL":1,"TEXCOORD_0":2},"indices":3,"material":0}]},{"primitives":[{"mode":4,"attributes":{"POSITION":4,"NORMAL":5,"TEXCOORD_0":6},"indices":7,"material":0}]},{"primitives":[{"mode":4,"attributes":{"POSITION":8,"NORMAL":9,"TEXCOORD_0":10},"indices":11,"material":0}]},{"primitives":[{"mode":4,"attributes":{"POSITION":12,"NORMAL":13,"TEXCOORD_0":14},"indices":15,"material":0}]},{"primitives":[{"mode":4,"attributes":{"POSITION":16,"NORMAL":17,"TEXCOORD_0":18},"indices":19,"material":0}]},{"primitives":[{"mode":4,"attributes":{"POSITION":20,"NORMAL":21,"TEXCOORD_0":22},"indices":23,"material":0}]},{"primitives":[{"mode":4,"attributes":{"POSITION":24,"NORMAL":25,"TEXCOORD_0":26},"indices":27,"material":0}]},{"primitives":[{"mode":4,"attributes":{"POSITION":28,"NORMAL":29,"TEXCOORD_0":30},"indices":31,"material":0}]},{"primitives":[{"mode":4,"attributes":{"POSITION":32,"NORMAL":33,"TEXCOORD_0":34},"indices":35,"material":0}]},{"primitives":[{"mode":4,"attributes":{"POSITION":36,"NORMAL":37,"TEXCOORD_0":38},"indices":39,"material":0}]},{"primitives":[{"mode":4,"attributes":{"POSITION":40,"NORMAL":41,"TEXCOORD_0":42},"indices":43,"material":0}]},{"primitives":[{"mode":4,"attributes":{"POSITION":44,"NORMAL":45,"TEXCOORD_0":46},"indices":47,"material":0}]},{"primitives":[{"mode":4,"attributes":{"POSITION":48,"NORMAL":49,"TEXCOORD_0":50},"indices":51,"material":0}]}],"animations":[{"name":"animation","samplers":[{"input":52,"output":53,"interpolation":"LINEAR"},{"input":54,"output":55,"interpolation":"LINEAR"},{"input":56,"output":57,"interpolation":"LINEAR"},{"input":58,"output":59,"interpolation":"LINEAR"},{"input":60,"output":61,"interpolation":"LINEAR"},{"input":62,"output":63,"interpolation":"LINEAR"},{"input":64,"output":65,"interpolation":"LINEAR"},{"input":66,"output":67,"interpolation":"LINEAR"},{"input":68,"output":69,"interpolation":"LINEAR"},{"input":70,"output":71,"interpolation":"LINEAR"},{"input":72,"output":73,"interpolation":"LINEAR"},{"input":74,"output":75,"interpolation":"LINEAR"},{"input":76,"output":77,"interpolation":"LINEAR"},{"input":78,"output":79,"interpolation":"LINEAR"},{"input":80,"output":81,"interpolation":"LINEAR"},{"input":82,"output":83,"interpolation":"LINEAR"},{"input":84,"output":85,"interpolation":"LINEAR"},{"input":86,"output":87,"interpolation":"LINEAR"},{"input":88,"output":89,"interpolation":"LINEAR"},{"input":90,"output":91,"interpolation":"LINEAR"},{"input":92,"output":93,"interpolation":"LINEAR"},{"input":94,"output":95,"interpolation":"LINEAR"},{"input":96,"output":97,"interpolation":"LINEAR"},{"input":98,"output":99,"interpolation":"LINEAR"},{"input":100,"output":101,"interpolation":"LINEAR"},{"input":102,"output":103,"interpolation":"LINEAR"},{"input":104,"output":105,"interpolation":"LINEAR"},{"input":106,"output":107,"interpolation":"LINEAR"},{"input":108,"output":109,"interpolation":"LINEAR"},{"input":110,"output":111,"interpolation":"LINEAR"}],"channels":[{"sampler":0,"target":{"node":24,"path":"rotation"}},{"sampler":1,"target":{"node":24,"path":"translation"}},{"sampler":2,"target":{"node":24,"path":"scale"}},{"sampler":3,"target":{"node":22,"path":"rotation"}},{"sampler":4,"target":{"node":22,"path":"translation"}},{"sampler":5,"target":{"node":22,"path":"scale"}},{"sampler":6,"target":{"node":20,"path":"rotation"}},{"sampler":7,"target":{"node":20,"path":"translation"}},{"sampler":8,"target":{"node":20,"path":"scale"}},{"sampler":9,"target":{"node":4,"path":"rotation"}},{"sampler":10,"target":{"node":4,"path":"translation"}},{"sampler":11,"target":{"node":4,"path":"scale"}},{"sampler":12,"target":{"node":2,"path":"rotation"}},{"sampler":13,"target":{"node":2,"path":"translation"}},{"sampler":14,"target":{"node":2,"path":"scale"}},{"sampler":15,"target":{"node":10,"path":"rotation"}},{"sampler":16,"target":{"node":10,"path":"translation"}},{"sampler":17,"target":{"node":10,"path":"scale"}},{"sampler":18,"target":{"node":8,"path":"rotation"}},{"sampler":19,"target":{"node":8,"path":"translation"}},{"sampler":20,"target":{"node":8,"path":"scale"}},{"sampler":21,"target":{"node":16,"path":"rotation"}},{"sampler":22,"target":{"node":16,"path":"translation"}},{"sampler":23,"target":{"node":16,"path":"scale"}},{"sampler":24,"target":{"node":14,"path":"rotation"}},{"sampler":25,"target":{"node":14,"path":"translation"}},{"sampler":26,"target":{"node":14,"path":"scale"}},{"sampler":27,"target":{"node":18,"path":"rotation"}},{"sampler":28,"target":{"node":18,"path":"translation"}},{"sampler":29,"target":{"node":18,"path":"scale"}}]}]}