{"asset":{"version":"2.0","generator":"Blockbench 5.1.6 glTF exporter"},"scenes":[{"nodes":[22],"name":"blockbench_export"}],"scene":0,"nodes":[{"translation":[0,-2.1875,0.3125],"name":"body","mesh":0},{"translation":[-0.625,-0.625,0],"name":"left_upper_arm","mesh":1},{"translation":[0,-1.875,0],"name":"left_forearm","mesh":2},{"translation":[-0.625,-3.125,0],"name":"left_elbow","children":[2]},{"translation":[-1.875,2.5,0],"name":"left_shoulder","children":[1,3]},{"translation":[-0.625,-1.71875,0],"name":"right_thigh","mesh":3},{"translation":[0,-1.71875,0],"name":"right_shin","mesh":4},{"translation":[0,-2.8125,-0.625],"name":"right_foot","mesh":5},{"translation":[0,-3.4375,0],"name":"right_ankle","children":[7]},{"translation":[0,-3.4375,0],"name":"right_knee","children":[6,8]},{"translation":[0.9375,-3.125,0],"name":"right_hip","children":[5,9]},{"translation":[-0.625,-1.71875,0],"name":"left_thigh","mesh":6},{"translation":[0,-1.71875,0],"name":"left_shin","mesh":7},{"translation":[0,-2.8125,-0.625],"name":"left_foot","mesh":8},{"translation":[0,-3.4375,0],"name":"left_ankle","children":[13]},{"translation":[0,-3.4375,0],"name":"left_knee","children":[12,14]},{"translation":[-0.9375,-3.125,0],"name":"left_hip","children":[11,15]},{"translation":[0.625,-1.25,0],"name":"right_upper_arm","mesh":9},{"translation":[0,-1.875,0],"name":"right_forearm","mesh":10},{"translation":[0.625,-3.125,0],"name":"right_elbow","children":[18]},{"name":"right_shoulder","children":[17,19]},{"translation":[1.875,2.5,0],"name":"shoulder_pitch","children":[20]},{"translation":[0,10.625,-0.3125],"name":"body","children":[0,4,10,16,21]}],"bufferViews":[{"buffer":0,"byteOffset":0,"byteLength":288,"target":34962,"byteStride":12},{"buffer":0,"byteOffset":288,"byteLength":288,"target":34962,"byteStride":12},{"buffer":0,"byteOffset":576,"byteLength":192,"target":34962,"byteStride":8},{"buffer":0,"byteOffset":768,"byteLength":72,"target":34963},{"buffer":0,"byteOffset":840,"byteLength":288,"target":34962,"byteStride":12},{"buffer":0,"byteOffset":1128,"byteLength":288,"target":34962,"byteStride":12},{"buffer":0,"byteOffset":1416,"byteLength":192,"target":34962,"byteStride":8},{"buffer":0,"byteOffset":1608,"byteLength":72,"target":34963},{"buffer":0,"byteOffset":1680,"byteLength":288,"target":34962,"byteStride":12},{"buffer":0,"byteOffset":1968,"byteLength":288,"target":34962,"byteStride":12},{"buffer":0,"byteOffset":2256,"byteLength":192,"target":34962,"byteStride":8},{"buffer":0,"byteOffset":2448,"byteLength":72,"target":34963},{"buffer":0,"byteOffset":2520,"byteLength":288,"target":34962,"byteStride":12},{"buffer":0,"byteOffset":2808,"byteLength":288,"target":34962,"byteStride":12},{"buffer":0,"byteOffset":3096,"byteLength":192,"target":34962,"byteStride":8},{"buffer":0,"byteOffset":3288,"byteLength":72,"target":34963},{"buffer":0,"byteOffset":3360,"byteLength":288,"target":34962,"byteStride":12},{"buffer":0,"byteOffset":3648,"byteLength":288,"target":34962,"byteStride":12},{"buffer":0,"byteOffset":3936,"byteLength":192,"target":34962,"byteStride":8},{"buffer":0,"byteOffset":4128,"byteLength":72,"target":34963},{"buffer":0,"byteOffset":4200,"byteLength":288,"target":34962,"byteStride":12},{"buffer":0,"byteOffset":4488,"byteLength":288,"target":34962,"byteStride":12},{"buffer":0,"byteOffset":4776,"byteLength":192,"target":34962,"byteStride":8},{"buffer":0,"byteOffset":4968,"byteLength":72,"target":34963},{"buffer":0,"byteOffset":5040,"byteLength":288,"target":34962,"byteStride":12},{"buffer":0,"byteOffset":5328,"byteLength":288,"target":34962,"byteStride":12},{"buffer":0,"byteOffset":5616,"byteLength":192,"target":34962,"byteStride":8},{"buffer":0,"byteOffset":5808,"byteLength":72,"target":34963},{"buffer":0,"byteOffset":5880,"byteLength":288,"target":34962,"byteStride":12},{"buffer":0,"byteOffset":6168,"byteLength":288,"target":34962,"byteStride":12},{"buffer":0,"byteOffset":6456,"byteLength":192,"target":34962,"byteStride":8},{"buffer":0,"byteOffset":6648,"byteLength":72,"target":34963},{"buffer":0,"byteOffset":6720,"byteLength":288,"target":34962,"byteStride":12},{"buffer":0,"byteOffset":7008,"byteLength":288,"target":34962,"byteStride":12},{"buffer":0,"byteOffset":7296,"byteLength":192,"target":34962,"byteStride":8},{"buffer":0,"byteOffset":7488,"byteLength":72,"target":34963},{"buffer":0,"byteOffset":7560,"byteLength":288,"target":34962,"byteStride":12},{"buffer":0,"byteOffset":7848,"byteLength":288,"target":34962,"byteStride":12},{"buffer":0,"byteOffset":8136,"byteLength":192,"target":34962,"byteStride":8},{"buffer":0,"byteOffset":8328,"byteLength":72,"target":34963},{"buffer":0,"byteOffset":8400,"byteLength":288,"target":34962,"byteStride":12},{"buffer":0,"byteOffset":8688,"byteLength":288,"target":34962,"byteStride":12},{"buffer":0,"byteOffset":8976,"byteLength":192,"target":34962,"byteStride":8},{"buffer":0,"byteOffset":9168,"byteLength":72,"target":34963},{"buffer":0,"byteOffset":9240,"byteLength":8},{"buffer":0,"byteOffset":9248,"byteLength":32},{"buffer":0,"byteOffset":9280,"byteLength":12},{"buffer":0,"byteOffset":9292,"byteLength":48},{"buffer":0,"byteOffset":9340,"byteLength":8},{"buffer":0,"byteOffset":9348,"byteLength":32},{"buffer":0,"byteOffset":9380,"byteLength":12},{"buffer":0,"byteOffset":9392,"byteLength":48},{"buffer":0,"byteOffset":9440,"byteLength":8},{"buffer":0,"byteOffset":9448,"byteLength":32},{"buffer":0,"byteOffset":9480,"byteLength":8},{"buffer":0,"byteOffset":9488,"byteLength":32},{"buffer":0,"byteOffset":9520,"byteLength":8},{"buffer":0,"byteOffset":9528,"byteLength":32},{"buffer":0,"byteOffset":9560,"byteLength":8},{"buffer":0,"byteOffset":9568,"byteLength":32},{"buffer":0,"byteOffset":9600,"byteLength":8},{"buffer":0,"byteOffset":9608,"byteLength":32},{"buffer":0,"byteOffset":9640,"byteLength":8},{"buffer":0,"byteOffset":9648,"byteLength":32},{"buffer":0,"byteOffset":9680,"byteLength":8},{"buffer":0,"byteOffset":9688,"byteLength":32},{"buffer":0,"byteOffset":9720,"byteLength":8},{"buffer":0,"byteOffset":9728,"byteLength":32},{"buffer":0,"byteOffset":9760,"byteLength":8},{"buffer":0,"byteOffset":9768,"byteLength":32},{"buffer":0,"byteOffset":9800,"byteLength":8},{"buffer":0,"byteOffset":9808,"byteLength":32},{"buffer":0,"byteOffset":9840,"byteLength":8},{"buffer":0,"byteOffset":9848,"byteLength":32},{"buffer":0,"byteOffset":9880,"byteLength":20},{"buffer":0,"byteOffset":9900,"byteLength":80},{"buffer":0,"byteOffset":9980,"byteLength":20},{"buffer":0,"byteOffset":10000,"byteLength":80},{"buffer":0,"byteOffset":10080,"byteLength":8},{"buffer":0,"byteOffset":10088,"byteLength":32},{"buffer":0,"byteOffset":10120,"byteLength":8},{"buffer":0,"byteOffset":10128,"byteLength":32},{"buffer":0,"byteOffset":10160,"byteLength":8},{"buffer":0,"byteOffset":10168,"byteLength":32},{"buffer":0,"byteOffset":10200,"byteLength":8},{"buffer":0,"byteOffset":10208,"byteLength":32},{"buffer":0,"byteOffset":10240,"byteLength":8},{"buffer":0,"byteOffset":10248,"byteLength":32},{"buffer":0,"byteOffset":10280,"byteLength":8},{"buffer":0,"byteOffset":10288,"byteLength":32},{"buffer":0,"byteOffset":10320,"byteLength":8},{"buffer":0,"byteOffset":10328,"byteLength":32},{"buffer":0,"byteOffset":10360,"byteLength":12},{"buffer":0,"byteOffset":10372,"byteLength":48},{"buffer":0,"byteOffset":10420,"byteLength":12},{"buffer":0,"byteOffset":10432,"byteLength":48},{"buffer":0,"byteOffset":10480,"byteLength":12},{"buffer":0,"byteOffset":10492,"byteLength":48},{"buffer":0,"byteOffset":10540,"byteLength":12},{"buffer":0,"byteOffset":10552,"byteLength":48},{"buffer":0,"byteOffset":10600,"byteLength":12},{"buffer":0,"byteOffset":10612,"byteLength":48},{"buffer":0,"byteOffset":10660,"byteLength":12},{"buffer":0,"byteOffset":10672,"byteLength":48},{"buffer":0,"byteOffset":10720,"byteLength":12},{"buffer":0,"byteOffset":10732,"byteLength":48},{"buffer":0,"byteOffset":10780,"byteLength":12},{"buffer":0,"byteOffset":10792,"byteLength":48},{"buffer":0,"byteOffset":10840,"byteLength":28},{"buffer":0,"byteOffset":10868,"byteLength":112},{"buffer":0,"byteOffset":10980,"byteLength":28},{"buffer":0,"byteOffset":11008,"byteLength":112},{"buffer":0,"byteOffset":11120,"byteLength":8},{"buffer":0,"byteOffset":11128,"byteLength":32},{"buffer":0,"byteOffset":11160,"byteLength":8},{"buffer":0,"byteOffset":11168,"byteLength":32},{"buffer":0,"byteOffset":11200,"byteLength":12},{"buffer":0,"byteOffset":11212,"byteLength":48},{"buffer":0,"byteOffset":11260,"byteLength":12},{"buffer":0,"byteOffset":11272,"byteLength":48},{"buffer":0,"byteOffset":11320,"byteLength":20},{"buffer":0,"byteOffset":11340,"byteLength":80},{"buffer":0,"byteOffset":11420,"byteLength":20},{"buffer":0,"byteOffset":11440,"byteLength":80},{"buffer":0,"byteOffset":11520,"byteLength":12},{"buffer":0,"byteOffset":11532,"byteLength":48},{"buffer":0,"byteOffset":11580,"byteLength":12},{"buffer":0,"byteOffset":11592,"byteLength":48},{"buffer":0,"byteOffset":11640,"byteLength":12},{"buffer":0,"byteOffset":11652,"byteLength":48},{"buffer":0,"byteOffset":11700,"byteLength":12},{"buffer":0,"byteOffset":11712,"byteLength":48},{"buffer":0,"byteOffset":11760,"byteLength":28},{"buffer":0,"byteOffset":11788,"byteLength":112},{"buffer":0,"byteOffset":11900,"byteLength":28},{"buffer":0,"byteOffset":11928,"byteLength":112},{"buffer":0,"byteOffset":12040,"byteLength":8},{"buffer":0,"byteOffset":12048,"byteLength":32},{"buffer":0,"byteOffset":12080,"byteLength":20},{"buffer":0,"byteOffset":12100,"byteLength":80},{"buffer":0,"byteOffset":12180,"byteLength":8},{"buffer":0,"byteOffset":12188,"byteLength":32},{"buffer":0,"byteOffset":12220,"byteLength":20},{"buffer":0,"byteOffset":12240,"byteLength":80},{"buffer":0,"byteOffset":12320,"byteLength":8},{"buffer":0,"byteOffset":12328,"byteLength":32},{"buffer":0,"byteOffset":12360,"byteLength":16},{"buffer":0,"byteOffset":12376,"byteLength":64},{"buffer":0,"byteOffset":12440,"byteLength":16},{"buffer":0,"byteOffset":12456,"byteLength":64},{"buffer":0,"byteOffset":12520,"byteLength":16},{"buffer":0,"byteOffset":12536,"byteLength":64},{"buffer":0,"byteOffset":12600,"byteLength":16},{"buffer":0,"byteOffset":12616,"byteLength":64},{"buffer":0,"byteOffset":12680,"byteLength":24},{"buffer":0,"byteOffset":12704,"byteLength":96},{"buffer":0,"byteOffset":12800,"byteLength":24},{"buffer":0,"byteOffset":12824,"byteLength":96},{"buffer":0,"byteOffset":12920,"byteLength":8},{"buffer":0,"byteOffset":12928,"byteLength":32},{"buffer":0,"byteOffset":12960,"byteLength":12},{"buffer":0,"byteOffset":12972,"byteLength":48}],"buffers":[{"byteLength":13020,"uri":"data:application/octet-stream;base64,"}],"accessors":[{"bufferView":0,"componentType":5126,"count":24,"max":[1.875,5.3125,0.625],"min":[-1.875,-0.9375,-1.25],"type":"VEC3"},{"bufferView":1,"componentType":5126,"count":24,"max":[1,1,1],"min":[-1,-1,-1],"type":"VEC3"},{"bufferView":2,"componentType":5126,"count":24,"max":[0.3125,0.328125],"min":[0,0],"type":"VEC2"},{"bufferView":3,"componentType":5123,"count":36,"max":[23],"min":[0],"type":"SCALAR"},{"bufferView":4,"componentType":5126,"count":24,"max":[0.625,1.25,0.625],"min":[-0.625,-2.5,-0.625],"type":"VEC3"},{"bufferView":5,"componentType":5126,"count":24,"max":[1,1,1],"min":[-1,-1,-1],"type":"VEC3"},{"bufferView":6,"componentType":5126,"count":24,"max":[0.515625,0.5625],"min":[0.203125,0.109375],"type":"VEC2"},{"bufferView":7,"componentType":5123,"count":36,"max":[23],"min":[0],"type":"SCALAR"},{"bufferView":8,"componentType":5126,"count":24,"max":[0.625,1.875,0.625],"min":[-0.625,-1.875,-0.625],"type":"VEC3"},{"bufferView":9,"componentType":5126,"count":24,"max":[1,1,1],"min":[-1,-1,-1],"type":"VEC3"},{"bufferView":10,"componentType":5126,"count":24,"max":[0.5,0.546875],"min":[0,0],"type":"VEC2"},{"bufferView":11,"componentType":5123,"count":36,"max":[23],"min":[0],"type":"SCALAR"},{"bufferView":12,"componentType":5126,"count":24,"max":[1.40625,1.71875,0.78125],"min":[-0.15625,-1.71875,-0.78125],"type":"VEC3"},{"bufferView":13,"componentType":5126,"count":24,"max":[1,1,1],"min":[-1,-1,-1],"type":"VEC3"},{"bufferView":14,"componentType":5126,"count":24,"max":[0.6015625,0.4296875],"min":[0,0.21875],"type":"VEC2"},{"bufferView":15,"componentType":5123,"count":36,"max":[23],"min":[0],"type":"SCALAR"},{"bufferView":16,"componentType":5126,"count":24,"max":[0.78125,1.71875,0.78125],"min":[-0.78125,-1.71875,-0.78125],"type":"VEC3"},{"bufferView":17,"componentType":5126,"count":24,"max":[1,1,1],"min":[-1,-1,-1],"type":"VEC3"},{"bufferView":18,"componentType":5126,"count":24,"max":[0.6015625,0.4453125],"min":[0.0625,0],"type":"VEC2"},{"bufferView":19,"componentType":5123,"count":36,"max":[23],"min":[0],"type":"SCALAR"},{"bufferView":20,"componentType":5126,"count":24,"max":[0.78125,2.8125,1.40625],"min":[-0.78125,2.1875,-1.40625],"type":"VEC3"},{"bufferView":21,"componentType":5126,"count":24,"max":[1,1,1],"min":[-1,-1,-1],"type":"VEC3"},{"bufferView":22,"componentType":5126,"count":24,"max":[0.6640625,0.640625],"min":[0.140625,0],"type":"VEC2"},{"bufferView":23,"componentType":5123,"count":36,"max":[23],"min":[0],"type":"SCALAR"},{"bufferView":24,"componentType":5126,"count":24,"max":[1.40625,1.71875,0.78125],"min":[-0.15625,-1.71875,-0.78125],"type":"VEC3"},{"bufferView":25,"componentType":5126,"count":24,"max":[1,1,1],"min":[-1,-1,-1],"type":"VEC3"},{"bufferView":26,"componentType":5126,"count":24,"max":[0.6171875,0.5078125],"min":[0.25,0.09375],"type":"VEC2"},{"bufferView":27,"componentType":5123,"count":36,"max":[23],"min":[0],"type":"SCALAR"},{"bufferView":28,"componentType":5126,"count":24,"max":[0.78125,1.71875,0.78125],"min":[-0.78125,-1.71875,-0.78125],"type":"VEC3"},{"bufferView":29,"componentType":5126,"count":24,"max":[1,1,1],"min":[-1,-1,-1],"type":"VEC3"},{"bufferView":30,"componentType":5126,"count":24,"max":[0.6171875,0.6171875],"min":[0.125,0],"type":"VEC2"},{"bufferView":31,"componentType":5123,"count":36,"max":[23],"min":[0],"type":"SCALAR"},{"bufferView":32,"componentType":5126,"count":24,"max":[0.78125,2.8125,1.40625],"min":[-0.78125,2.1875,-1.40625],"type":"VEC3"},{"bufferView":33,"componentType":5126,"count":24,"max":[1,1,1],"min":[-1,-1,-1],"type":"VEC3"},{"bufferView":34,"componentType":5126,"count":24,"max":[0.6796875,0.6171875],"min":[0.46875,0],"type":"VEC2"},{"bufferView":35,"componentType":5123,"count":36,"max":[23],"min":[0],"type":"SCALAR"},{"bufferView":36,"componentType":5126,"count":24,"max":[0.625,1.875,0.625],"min":[-0.625,-1.875,-0.625],"type":"VEC3"},{"bufferView":37,"componentType":5126,"count":24,"max":[1,1,1],"min":[-1,-1,-1],"type":"VEC3"},{"bufferView":38,"componentType":5126,"count":24,"max":[0.546875,0.609375],"min":[0.203125,0],"type":"VEC2"},{"bufferView":39,"componentType":5123,"count":36,"max":[23],"min":[0],"type":"SCALAR"},{"bufferView":40,"componentType":5126,"count":24,"max":[0.625,1.875,0.625],"min":[-0.625,-1.875,-0.625],"type":"VEC3"},{"bufferView":41,"componentType":5126,"count":24,"max":[1,1,1],"min":[-1,-1,-1],"type":"VEC3"},{"bufferView":42,"componentType":5126,"count":24,"max":[0.640625,0.65625],"min":[0,0.03125],"type":"VEC2"},{"bufferView":43,"componentType":5123,"count":36,"max":[23],"min":[0],"type":"SCALAR"},{"bufferView":44,"componentType":5126,"count":2,"max":[1],"min":[0],"type":"SCALAR"},{"bufferView":45,"componentType":5126,"count":2,"max":[0,0,0,1],"min":[0,0,0,1],"type":"VEC4"},{"bufferView":46,"componentType":5126,"count":3,"max":[1],"min":[0],"type":"SCALAR"},{"bufferView":47,"componentType":5126,"count":3,"max":[0,0,0,1],"min":[0,0,-0.02181488461792469,0.9997619986534119],"type":"VEC4"},{"bufferView":48,"componentType":5126,"count":2,"max":[1],"min":[0],"type":"SCALAR"},{"bufferView":49,"componentType":5126,"count":2,"max":[0,0,0,1],"min":[0,0,0,1],"type":"VEC4"},{"bufferView":50,"componentType":5126,"count":3,"max":[1],"min":[0],"type":"SCALAR"},{"bufferView":51,"componentType":5126,"count":3,"max":[0,0,0.02181488461792469,1],"min":[0,0,0,0.9997619986534119],"type":"VEC4"},{"bufferView":52,"componentType":5126,"count":2,"max":[1],"min":[0],"type":"SCALAR"},{"bufferView":53,"componentType":5126,"count":2,"max":[0,0,0,1],"min":[0,0,0,1],"type":"VEC4"},{"bufferView":54,"componentType":5126,"count":2,"max":[1],"min":[0],"type":"SCALAR"},{"bufferView":55,"componentType":5126,"count":2,"max":[0,0,0,1],"min":[0,0,0,1],"type":"VEC4"},{"bufferView":56,"componentType":5126,"count":2,"max":[1],"min":[0],"type":"SCALAR"},{"bufferView":57,"componentType":5126,"count":2,"max":[0,0,0,1],"min":[0,0,0,1],"type":"VEC4"},{"bufferView":58,"componentType":5126,"count":2,"max":[1],"min":[0],"type":"SCALAR"},{"bufferView":59,"componentType":5126,"count":2,"max":[0,0,0,1],"min":[0,0,0,1],"type":"VEC4"},{"bufferView":60,"componentType":5126,"count":2,"max":[1],"min":[0],"type":"SCALAR"},{"bufferView":61,"componentType":5126,"count":2,"max":[0,0,0,1],"min":[0,0,0,1],"type":"VEC4"},{"bufferView":62,"componentType":5126,"count":2,"max":[1],"min":[0],"type":"SCALAR"},{"bufferView":63,"componentType":5126,"count":2,"max":[0,0,0,1],"min":[0,0,0,1],"type":"VEC4"},{"bufferView":64,"componentType":5126,"count":2,"max":[1],"min":[0],"type":"SCALAR"},{"bufferView":65,"componentType":5126,"count":2,"max":[0,0,0,1],"min":[0,0,0,1],"type":"VEC4"},{"bufferView":66,"componentType":5126,"count":2,"max":[1],"min":[0],"type":"SCALAR"},{"bufferView":67,"componentType":5126,"count":2,"max":[0,0,0,1],"min":[0,0,0,1],"type":"VEC4"},{"bufferView":68,"componentType":5126,"count":2,"max":[1],"min":[0],"type":"SCALAR"},{"bufferView":69,"componentType":5126,"count":2,"max":[0,0,0,1],"min":[0,0,0,1],"type":"VEC4"},{"bufferView":70,"componentType":5126,"count":2,"max":[1],"min":[0],"type":"SCALAR"},{"bufferView":71,"componentType":5126,"count":2,"max":[0,0,0,1],"min":[0,0,0,1],"type":"VEC4"},{"bufferView":72,"componentType":5126,"count":2,"max":[1],"min":[0],"type":"SCALAR"},{"bufferView":73,"componentType":5126,"count":2,"max":[0,0,0,1],"min":[0,0,0,1],"type":"VEC4"},{"bufferView":74,"componentType":5126,"count":5,"max":[1],"min":[0],"type":"SCALAR"},{"bufferView":75,"componentType":5126,"count":5,"max":[-0.08721605688333511,0,0,0.9959505200386047],"min":[-0.4226182699203491,-0.0018996126018464565,-0.021732328459620476,0.9063078165054321],"type":"VEC4"},{"bufferView":76,"componentType":5126,"count":5,"max":[1],"min":[0],"type":"SCALAR"},{"bufferView":77,"componentType":5126,"count":5,"max":[0.751839816570282,0,0,0.9848077297210693],"min":[0.1736481785774231,0,0,0.659345805644989],"type":"VEC4"},{"bufferView":78,"componentType":5126,"count":2,"max":[1],"min":[0],"type":"SCALAR"},{"bufferView":79,"componentType":5126,"count":2,"max":[0,0,0,1],"min":[0,0,0,1],"type":"VEC4"},{"bufferView":80,"componentType":5126,"count":2,"max":[1],"min":[0],"type":"SCALAR"},{"bufferView":81,"componentType":5126,"count":2,"max":[0,0,0,1],"min":[0,0,0,1],"type":"VEC4"},{"bufferView":82,"componentType":5126,"count":2,"max":[1],"min":[0],"type":"SCALAR"},{"bufferView":83,"componentType":5126,"count":2,"max":[0,0,0,1],"min":[0,0,0,1],"type":"VEC4"},{"bufferView":84,"componentType":5126,"count":2,"max":[1],"min":[0],"type":"SCALAR"},{"bufferView":85,"componentType":5126,"count":2,"max":[0,0,0,1],"min":[0,0,0,1],"type":"VEC4"},{"bufferView":86,"componentType":5126,"count":2,"max":[1],"min":[0],"type":"SCALAR"},{"bufferView":87,"componentType":5126,"count":2,"max":[0,0,0,1],"min":[0,0,0,1],"type":"VEC4"},{"bufferView":88,"componentType":5126,"count":2,"max":[1],"min":[0],"type":"SCALAR"},{"bufferView":89,"componentType":5126,"count":2,"max":[0,0,0,1],"min":[0,0,0,1],"type":"VEC4"},{"bufferView":90,"componentType":5126,"count":2,"max":[1],"min":[0],"type":"SCALAR"},{"bufferView":91,"componentType":5126,"count":2,"max":[0,0,0,1],"min":[0,0,0,1],"type":"VEC4"},{"bufferView":92,"componentType":5126,"count":3,"max":[1],"min":[0],"type":"SCALAR"},{"bufferView":93,"componentType":5126,"count":3,"max":[0.13052618503570557,0,0,0.9914448857307434],"min":[-0.13052618503570557,0,0,0.9914448857307434],"type":"VEC4"},{"bufferView":94,"componentType":5126,"count":3,"max":[1],"min":[0],"type":"SCALAR"},{"bufferView":95,"componentType":5126,"count":3,"max":[0.1736481785774231,0,0,0.9978589415550232],"min":[0.06540312618017197,0,0,0.9848077297210693],"type":"VEC4"},{"bufferView":96,"componentType":5126,"count":3,"max":[1],"min":[0],"type":"SCALAR"},{"bufferView":97,"componentType":5126,"count":3,"max":[0.13052618503570557,0,0,0.9914448857307434],"min":[-0.13052618503570557,0,0,0.9914448857307434],"type":"VEC4"},{"bufferView":98,"componentType":5126,"count":3,"max":[1],"min":[0],"type":"SCALAR"},{"bufferView":99,"componentType":5126,"count":3,"max":[0.1736481785774231,0,0,0.9978589415550232],"min":[0.06540312618017197,0,0,0.9848077297210693],"type":"VEC4"},{"bufferView":100,"componentType":5126,"count":3,"max":[1],"min":[0],"type":"SCALAR"},{"bufferView":101,"componentType":5126,"count":3,"max":[0.19509032368659973,0,0,0.9807852506637573],"min":[-0.19509032368659973,0,0,0.9807852506637573],"type":"VEC4"},{"bufferView":102,"componentType":5126,"count":3,"max":[1],"min":[0],"type":"SCALAR"},{"bufferView":103,"componentType":5126,"count":3,"max":[-0.02181488461792469,0,0,0.9997619986534119],"min":[-0.06540312618017197,0,0,0.9978589415550232],"type":"VEC4"},{"bufferView":104,"componentType":5126,"count":3,"max":[1],"min":[0],"type":"SCALAR"},{"bufferView":105,"componentType":5126,"count":3,"max":[0.19509032368659973,0,0,0.9807852506637573],"min":[-0.19509032368659973,0,0,0.9807852506637573],"type":"VEC4"},{"bufferView":106,"componentType":5126,"count":3,"max":[1],"min":[0],"type":"SCALAR"},{"bufferView":107,"componentType":5126,"count":3,"max":[-0.02181488461792469,0,0,0.9997619986534119],"min":[-0.06540312618017197,0,0,0.9978589415550232],"type":"VEC4"},{"bufferView":108,"componentType":5126,"count":7,"max":[1],"min":[0],"type":"SCALAR"},{"bufferView":109,"componentType":5126,"count":7,"max":[0.10886687785387039,0,0,0.9997619986534119],"min":[0.02181488461792469,0,0,0.9940563440322876],"type":"VEC4"},{"bufferView":110,"componentType":5126,"count":7,"max":[1],"min":[0],"type":"SCALAR"},{"bufferView":111,"componentType":5126,"count":7,"max":[0.10886687785387039,0,0,0.9997619986534119],"min":[0.02181488461792469,0,0,0.9940563440322876],"type":"VEC4"},{"bufferView":112,"componentType":5126,"count":2,"max":[1],"min":[0],"type":"SCALAR"},{"bufferView":113,"componentType":5126,"count":2,"max":[0,0,0,1],"min":[0,0,0,1],"type":"VEC4"},{"bufferView":114,"componentType":5126,"count":2,"max":[1],"min":[0],"type":"SCALAR"},{"bufferView":115,"componentType":5126,"count":2,"max":[0,0,0,1],"min":[0,0,0,1],"type":"VEC4"},{"bufferView":116,"componentType":5126,"count":3,"max":[1],"min":[0],"type":"SCALAR"},{"bufferView":117,"componentType":5126,"count":3,"max":[0.13052618503570557,0,0,0.9914448857307434],"min":[-0.13052618503570557,0,0,0.9914448857307434],"type":"VEC4"},{"bufferView":118,"componentType":5126,"count":3,"max":[1],"min":[0],"type":"SCALAR"},{"bufferView":119,"componentType":5126,"count":3,"max":[0.1736481785774231,0,0,0.9978589415550232],"min":[0.06540312618017197,0,0,0.9848077297210693],"type":"VEC4"},{"bufferView":120,"componentType":5126,"count":5,"max":[1],"min":[0],"type":"SCALAR"},{"bufferView":121,"componentType":5126,"count":5,"max":[-0.08721605688333511,0,0,0.9959505200386047],"min":[-0.4226182699203491,-0.0018996126018464565,-0.021732328459620476,0.9063078165054321],"type":"VEC4"},{"bufferView":122,"componentType":5126,"count":5,"max":[1],"min":[0],"type":"SCALAR"},{"bufferView":123,"componentType":5126,"count":5,"max":[0.751839816570282,0,0,0.9848077297210693],"min":[0.1736481785774231,0,0,0.659345805644989],"type":"VEC4"},{"bufferView":124,"componentType":5126,"count":3,"max":[1],"min":[0],"type":"SCALAR"},{"bufferView":125,"componentType":5126,"count":3,"max":[0.19509032368659973,0,0,0.9807852506637573],"min":[-0.19509032368659973,0,0,0.9807852506637573],"type":"VEC4"},{"bufferView":126,"componentType":5126,"count":3,"max":[1],"min":[0],"type":"SCALAR"},{"bufferView":127,"componentType":5126,"count":3,"max":[-0.02181488461792469,0,0,0.9997619986534119],"min":[-0.06540312618017197,0,0,0.9978589415550232],"type":"VEC4"},{"bufferView":128,"componentType":5126,"count":3,"max":[1],"min":[0],"type":"SCALAR"},{"bufferView":129,"componentType":5126,"count":3,"max":[0.19509032368659973,0,0,0.9807852506637573],"min":[-0.19509032368659973,0,0,0.9807852506637573],"type":"VEC4"},{"bufferView":130,"componentType":5126,"count":3,"max":[1],"min":[0],"type":"SCALAR"},{"bufferView":131,"componentType":5126,"count":3,"max":[-0.02181488461792469,0,0,0.9997619986534119],"min":[-0.06540312618017197,0,0,0.9978589415550232],"type":"VEC4"},{"bufferView":132,"componentType":5126,"count":7,"max":[1],"min":[0],"type":"SCALAR"},{"bufferView":133,"componentType":5126,"count":7,"max":[0.10886687785387039,0,0,0.9997619986534119],"min":[0.02181488461792469,0,0,0.9940563440322876],"type":"VEC4"},{"bufferView":134,"componentType":5126,"count":7,"max":[1],"min":[0],"type":"SCALAR"},{"bufferView":135,"componentType":5126,"count":7,"max":[0.10886687785387039,0,0,0.9997619986534119],"min":[0.02181488461792469,0,0,0.9940563440322876],"type":"VEC4"},{"bufferView":136,"componentType":5126,"count":2,"max":[1],"min":[0],"type":"SCALAR"},{"bufferView":137,"componentType":5126,"count":2,"max":[-0.06540312618017197,0,0,0.9978589415550232],"min":[-0.06540312618017197,0,0,0.9978589415550232],"type":"VEC4"},{"bufferView":138,"componentType":5126,"count":5,"max":[1],"min":[0],"type":"SCALAR"},{"bufferView":139,"componentType":5126,"count":5,"max":[0.258819043636322,0,0,1],"min":[-0.258819043636322,0,0,0.9659258127212524],"type":"VEC4"},{"bufferView":140,"componentType":5126,"count":2,"max":[1],"min":[0],"type":"SCALAR"},{"bufferView":141,"componentType":5126,"count":2,"max":[0.9238795042037964,0,0,0.3826834261417389],"min":[0.9238795042037964,0,0,0.3826834261417389],"type":"VEC4"},{"bufferView":142,"componentType":5126,"count":5,"max":[1],"min":[0],"type":"SCALAR"},{"bufferView":143,"componentType":5126,"count":5,"max":[0.258819043636322,0,0,1],"min":[-0.258819043636322,0,0,0.9659258127212524],"type":"VEC4"},{"bufferView":144,"componentType":5126,"count":2,"max":[1],"min":[0],"type":"SCALAR"},{"bufferView":145,"componentType":5126,"count":2,"max":[0.9238795042037964,0,0,0.3826834261417389],"min":[0.9238795042037964,0,0,0.3826834261417389],"type":"VEC4"},{"bufferView":146,"componentType":5126,"count":4,"max":[1],"min":[0],"type":"SCALAR"},{"bufferView":147,"componentType":5126,"count":4,"max":[0.258819043636322,0,0,0.9807852506637573],"min":[-0.258819043636322,0,0,0.9659258127212524],"type":"VEC4"},{"bufferView":148,"componentType":5126,"count":4,"max":[1],"min":[0],"type":"SCALAR"},{"bufferView":149,"componentType":5126,"count":4,"max":[-0.04361938685178757,0,0,0.9990482330322266],"min":[-0.6087614297866821,0,0,0.7933533191680908],"type":"VEC4"},{"bufferView":150,"componentType":5126,"count":4,"max":[1],"min":[0],"type":"SCALAR"},{"bufferView":151,"componentType":5126,"count":4,"max":[0.258819043636322,0,0,0.9807852506637573],"min":[-0.258819043636322,0,0,0.9659258127212524],"type":"VEC4"},{"bufferView":152,"componentType":5126,"count":4,"max":[1],"min":[0],"type":"SCALAR"},{"bufferView":153,"componentType":5126,"count":4,"max":[-0.04361938685178757,0,0,0.9990482330322266],"min":[-0.6087614297866821,0,0,0.7933533191680908],"type":"VEC4"},{"bufferView":154,"componentType":5126,"count":6,"max":[1],"min":[0],"type":"SCALAR"},{"bufferView":155,"componentType":5126,"count":6,"max":[0.13052618503570557,0,0,0.9999405145645142],"min":[-0.2164396196603775,0,0,0.9762960076332092],"type":"VEC4"},{"bufferView":156,"componentType":5126,"count":6,"max":[1],"min":[0],"type":"SCALAR"},{"bufferView":157,"componentType":5126,"count":6,"max":[0.13052618503570557,0,0,0.9999405145645142],"min":[-0.2164396196603775,0,0,0.9762960076332092],"type":"VEC4"},{"bufferView":158,"componentType":5126,"count":2,"max":[1],"min":[0],"type":"SCALAR"},{"bufferView":159,"componentType":5126,"count":2,"max":[0,0,0,1],"min":[0,0,0,1],"type":"VEC4"},{"bufferView":160,"componentType":5126,"count":3,"max":[1],"min":[0],"type":"SCALAR"},{"bufferView":161,"componentType":5126,"count":3,"max":[1,0,0,1],"min":[0,0,0,6.123234262925839e-17],"type":"VEC4"}],"materials":[{"pbrMetallicRoughness":{"metallicFactor":0,"roughnessFactor":1,"baseColorTexture":{"index":0}},"alphaMode":"MASK","alphaCutoff":0.05,"doubleSided":true}],"textures":[{"sampler":0,"source":0,"name":"infdev_player.png"}],"samplers":[{"magFilter":9728,"minFilter":9728,"wrapS":33071,"wrapT":33071}],"images":[{"mimeType":"image/png","name":"infdev_player.png","uri":"infdev_player.png"}],"meshes":[{"primitives":[{"mode":4,"attributes":{"POSITION":0,"NORMAL":1,"TEXCOORD_0":2},"indices":3,"material":0}]},{"primitives":[{"mode":4,"attributes":{"POSITION":4,"NORMAL":5,"TEXCOORD_0":6},"indices":7,"material":0}]},{"primitives":[{"mode":4,"attributes":{"POSITION":8,"NORMAL":9,"TEXCOORD_0":10},"indices":11,"material":0}]},{"primitives":[{"mode":4,"attributes":{"POSITION":12,"NORMAL":13,"TEXCOORD_0":14},"indices":15,"material":0}]},{"primitives":[{"mode":4,"attributes":{"POSITION":16,"NORMAL":17,"TEXCOORD_0":18},"indices":19,"material":0}]},{"primitives":[{"mode":4,"attributes":{"POSITION":20,"NORMAL":21,"TEXCOORD_0":22},"indices":23,"material":0}]},{"primitives":[{"mode":4,"attributes":{"POSITION":24,"NORMAL":25,"TEXCOORD_0":26},"indices":27,"material":0}]},{"primitives":[{"mode":4,"attributes":{"POSITION":28,"NORMAL":29,"TEXCOORD_0":30},"indices":31,"material":0}]},{"primitives":[{"mode":4,"attributes":{"POSITION":32,"NORMAL":33,"TEXCOORD_0":34},"indices":35,"material":0}]},{"primitives":[{"mode":4,"attributes":{"POSITION":36,"NORMAL":37,"TEXCOORD_0":38},"indices":39,"material":0}]},{"primitives":[{"mode":4,"attributes":{"POSITION":40,"NORMAL":41,"TEXCOORD_0":42},"indices":43,"material":0}]}],"animations":[{"name":"idle","samplers":[{"input":44,"output":45,"interpolation":"LINEAR"},{"input":46,"output":47,"interpolation":"LINEAR"},{"input":48,"output":49,"interpolation":"LINEAR"},{"input":50,"output":51,"interpolation":"LINEAR"},{"input":52,"output":53,"interpolation":"LINEAR"},{"input":54,"output":55,"interpolation":"LINEAR"},{"input":56,"output":57,"interpolation":"LINEAR"},{"input":58,"output":59,"interpolation":"LINEAR"},{"input":60,"output":61,"interpolation":"LINEAR"},{"input":62,"output":63,"interpolation":"LINEAR"},{"input":64,"output":65,"interpolation":"LINEAR"},{"input":66,"output":67,"interpolation":"LINEAR"}],"channels":[{"sampler":0,"target":{"node":22,"path":"rotation"}},{"sampler":1,"target":{"node":4,"path":"rotation"}},{"sampler":2,"target":{"node":3,"path":"rotation"}},{"sampler":3,"target":{"node":20,"path":"rotation"}},{"sampler":4,"target":{"node":19,"path":"rotation"}},{"sampler":5,"target":{"node":10,"path":"rotation"}},{"sampler":6,"target":{"node":9,"path":"rotation"}},{"sampler":7,"target":{"node":16,"path":"rotation"}},{"sampler":8,"target":{"node":15,"path":"rotation"}},{"sampler":9,"target":{"node":8,"path":"rotation"}},{"sampler":10,"target":{"node":14,"path":"rotation"}},{"sampler":11,"target":{"node":21,"path":"rotation"}}]},{"name":"mine","samplers":[{"input":68,"output":69,"interpolation":"LINEAR"},{"input":70,"output":71,"interpolation":"LINEAR"},{"input":72,"output":73,"interpolation":"LINEAR"},{"input":74,"output":75,"interpolation":"LINEAR"},{"input":76,"output":77,"interpolation":"LINEAR"},{"input":78,"output":79,"interpolation":"LINEAR"},{"input":80,"output":81,"interpolation":"LINEAR"},{"input":82,"output":83,"interpolation":"LINEAR"},{"input":84,"output":85,"interpolation":"LINEAR"},{"input":86,"output":87,"interpolation":"LINEAR"},{"input":88,"output":89,"interpolation":"LINEAR"}],"channels":[{"sampler":0,"target":{"node":22,"path":"rotation"}},{"sampler":1,"target":{"node":4,"path":"rotation"}},{"sampler":2,"target":{"node":3,"path":"rotation"}},{"sampler":3,"target":{"node":20,"path":"rotation"}},{"sampler":4,"target":{"node":19,"path":"rotation"}},{"sampler":5,"target":{"node":10,"path":"rotation"}},{"sampler":6,"target":{"node":9,"path":"rotation"}},{"sampler":7,"target":{"node":16,"path":"rotation"}},{"sampler":8,"target":{"node":15,"path":"rotation"}},{"sampler":9,"target":{"node":8,"path":"rotation"}},{"sampler":10,"target":{"node":14,"path":"rotation"}}]},{"name":"walk","samplers":[{"input":90,"output":91,"interpolation":"LINEAR"},{"input":92,"output":93,"interpolation":"LINEAR"},{"input":94,"output":95,"interpolation":"LINEAR"},{"input":96,"output":97,"interpolation":"LINEAR"},{"input":98,"output":99,"interpolation":"LINEAR"},{"input":100,"output":101,"interpolation":"LINEAR"},{"input":102,"output":103,"interpolation":"LINEAR"},{"input":104,"output":105,"interpolation":"LINEAR"},{"input":106,"output":107,"interpolation":"LINEAR"},{"input":108,"output":109,"interpolation":"LINEAR"},{"input":110,"output":111,"interpolation":"LINEAR"},{"input":112,"output":113,"interpolation":"LINEAR"}],"channels":[{"sampler":0,"target":{"node":22,"path":"rotation"}},{"sampler":1,"target":{"node":4,"path":"rotation"}},{"sampler":2,"target":{"node":3,"path":"rotation"}},{"sampler":3,"target":{"node":20,"path":"rotation"}},{"sampler":4,"target":{"node":19,"path":"rotation"}},{"sampler":5,"target":{"node":10,"path":"rotation"}},{"sampler":6,"target":{"node":9,"path":"rotation"}},{"sampler":7,"target":{"node":16,"path":"rotation"}},{"sampler":8,"target":{"node":15,"path":"rotation"}},{"sampler":9,"target":{"node":8,"path":"rotation"}},{"sampler":10,"target":{"node":14,"path":"rotation"}},{"sampler":11,"target":{"node":21,"path":"rotation"}}]},{"name":"mine_walk","samplers":[{"input":114,"output":115,"interpolation":"LINEAR"},{"input":116,"output":117,"interpolation":"LINEAR"},{"input":118,"output":119,"interpolation":"LINEAR"},{"input":120,"output":121,"interpolation":"LINEAR"},{"input":122,"output":123,"interpolation":"LINEAR"},{"input":124,"output":125,"interpolation":"LINEAR"},{"input":126,"output":127,"interpolation":"LINEAR"},{"input":128,"output":129,"interpolation":"LINEAR"},{"input":130,"output":131,"interpolation":"LINEAR"},{"input":132,"output":133,"interpolation":"LINEAR"},{"input":134,"output":135,"interpolation":"LINEAR"}],"channels":[{"sampler":0,"target":{"node":22,"path":"rotation"}},{"sampler":1,"target":{"node":4,"path":"rotation"}},{"sampler":2,"target":{"node":3,"path":"rotation"}},{"sampler":3,"target":{"node":20,"path":"rotation"}},{"sampler":4,"target":{"node":19,"path":"rotation"}},{"sampler":5,"target":{"node":10,"path":"rotation"}},{"sampler":6,"target":{"node":9,"path":"rotation"}},{"sampler":7,"target":{"node":16,"path":"rotation"}},{"sampler":8,"target":{"node":15,"path":"rotation"}},{"sampler":9,"target":{"node":8,"path":"rotation"}},{"sampler":10,"target":{"node":14,"path":"rotation"}}]},{"name":"run","samplers":[{"input":136,"output":137,"interpolation":"LINEAR"},{"input":138,"output":139,"interpolation":"LINEAR"},{"input":140,"output":141,"interpolation":"LINEAR"},{"input":142,"output":143,"interpolation":"LINEAR"},{"input":144,"output":145,"interpolation":"LINEAR"},{"input":146,"output":147,"interpolation":"LINEAR"},{"input":148,"output":149,"interpolation":"LINEAR"},{"input":150,"output":151,"interpolation":"LINEAR"},{"input":152,"output":153,"interpolation":"LINEAR"},{"input":154,"output":155,"interpolation":"LINEAR"},{"input":156,"output":157,"interpolation":"LINEAR"},{"input":158,"output":159,"interpolation":"LINEAR"}],"channels":[{"sampler":0,"target":{"node":22,"path":"rotation"}},{"sampler":1,"target":{"node":4,"path":"rotation"}},{"sampler":2,"target":{"node":3,"path":"rotation"}},{"sampler":3,"target":{"node":20,"path":"rotation"}},{"sampler":4,"target":{"node":19,"path":"rotation"}},{"sampler":5,"target":{"node":10,"path":"rotation"}},{"sampler":6,"target":{"node":9,"path":"rotation"}},{"sampler":7,"target":{"node":16,"path":"rotation"}},{"sampler":8,"target":{"node":15,"path":"rotation"}},{"sampler":9,"target":{"node":8,"path":"rotation"}},{"sampler":10,"target":{"node":14,"path":"rotation"}},{"sampler":11,"target":{"node":21,"path":"rotation"}}]},{"name":"arm_pitch","samplers":[{"input":160,"output":161,"interpolation":"LINEAR"}],"channels":[{"sampler":0,"target":{"node":21,"path":"rotation"}}]}]}