{"scene":0,"asset":{"generator":"modlib b3d:to_gltf","version":"2.0"},"nodes":[{"rotation":[-0,0,0,1],"scale":[1,1,1],"mesh":0,"translation":[-0,0,0],"name":"Player"}],"accessors":[{"bufferView":0,"componentType":5126,"count":24,"min":[0.084556341171264648,-2.8239293098449707,-0.24943208694458008],"byteOffset":0,"max":[1.9154436588287354,0.82392966747283936,1.4494318962097168],"type":"VEC3"},{"bufferView":1,"componentType":5126,"count":24,"byteOffset":0,"type":"VEC3"},{"bufferView":2,"componentType":5126,"count":24,"byteOffset":0,"type":"VEC2"},{"bufferView":3,"componentType":5125,"count":36,"byteOffset":0,"type":"SCALAR"}],"buffers":[{"byteLength":912,"uri":"data:application/octet-stream;base64,"}],"meshes":[{"primitives":[{"indices":3,"attributes":{"NORMAL":1,"TEXCOORD_0":2,"POSITION":0}}]}],"scenes":[{"nodes":[0]}],"skins":{},"bufferViews":[{"buffer":0,"byteOffset":0,"byteLength":288,"target":34962},{"buffer":0,"byteOffset":288,"byteLength":288,"target":34962},{"buffer":0,"byteOffset":576,"byteLength":192,"target":34962},{"buffer":0,"byteOffset":768,"byteLength":144,"target":34963}]}