# Blender 5.1.2
# www.blender.org
mtllib character.mtl
o Player
v -2.100000 6.300000 1.049999
v -2.100000 6.300000 -1.050001
v -2.100000 12.599998 1.049999
v -2.100000 12.599998 -1.050001
v -4.200000 12.599998 -1.050001
v -4.200000 12.599998 1.049999
v -2.100000 12.599998 1.049999
v -2.100000 12.599998 -1.050001
v -4.200000 6.300000 -1.050001
v -4.200000 6.300000 1.049999
v -2.100000 6.300000 1.049999
v -2.100000 6.300000 -1.050001
v -2.100000 0.000001 1.049999
v -2.100000 0.000001 -1.050001
v -2.100000 6.300001 1.049999
v -2.100000 6.300001 -1.050001
v -2.100000 12.599998 2.099999
v -2.100000 12.599998 -2.100001
v -2.100000 16.799999 2.099999
v -2.100000 16.799999 -2.100001
v 2.100000 6.300000 -1.050001
v 2.100000 6.300000 1.049999
v 2.100000 12.599998 -1.050001
v 2.100000 12.599998 1.049999
v 2.100000 6.300000 -1.050001
v 2.100000 6.300000 1.049999
v 4.200000 6.300000 1.049999
v 4.200000 6.300000 -1.050001
v 2.100000 12.599998 -1.050001
v 2.100000 12.599998 1.049999
v 4.200000 12.599998 1.049999
v 4.200000 12.599998 -1.050001
v 0.000000 -0.000000 -1.050001
v -0.000000 0.000000 1.049999
v 0.000000 6.300000 1.049999
v 0.000000 6.300000 -1.050001
v 2.100000 12.599998 -2.100001
v 2.100000 12.599998 2.099999
v 2.100000 16.799999 -2.100001
v 2.100000 16.799999 2.099999
v 2.100000 6.300001 -1.050001
v 2.100000 6.300001 1.049999
v 2.100000 0.000001 -1.050001
v 2.100000 0.000001 1.049999
v 0.000000 0.000000 -1.050001
v -0.000000 -0.000000 1.049999
v -0.000000 6.300000 1.049999
v -0.000000 6.300000 -1.050001
v -2.300000 12.400000 2.299999
v -2.300000 12.400000 -2.300001
v -2.300000 17.000000 2.299999
v -2.300000 17.000000 -2.300001
v 2.300000 12.400000 -2.300001
v 2.300000 12.400000 2.299999
v 2.300000 17.000000 -2.300001
v 2.300000 17.000000 2.299999
v 2.100000 12.599998 -1.050001
v 2.100000 12.599998 -1.050001
v 2.100000 12.599998 1.049999
v 2.100000 12.599998 1.049999
v 2.100000 6.300000 1.049999
v 2.100000 6.300000 1.049999
v 2.100000 6.300000 -1.050001
v 2.100000 6.300000 -1.050001
v -2.100000 12.599998 1.049999
v -2.100000 12.599998 1.049999
v -2.100000 6.300000 1.049999
v -2.100000 6.300000 1.049999
v -2.100000 12.599998 -1.050001
v -2.100000 12.599998 -1.050001
v -2.100000 6.300000 -1.050001
v -2.100000 6.300000 -1.050001
v -4.200000 12.599998 -1.050001
v -4.200000 12.599998 -1.050001
v -4.200000 6.300000 -1.050001
v -4.200000 6.300000 -1.050001
v -2.100000 12.599998 1.049999
v -2.100000 12.599998 1.049999
v -2.100000 6.300000 1.049999
v -2.100000 6.300000 1.049999
v -4.200000 12.599998 1.049999
v -4.200000 12.599998 1.049999
v -4.200000 6.300000 1.049999
v -4.200000 6.300000 1.049999
v -2.100000 12.599998 -1.050001
v -2.100000 12.599998 -1.050001
v -2.100000 6.300000 -1.050001
v -2.100000 6.300000 -1.050001
v -0.000000 0.000000 1.049999
v -0.000000 0.000000 1.049999
v 0.000000 -0.000000 -1.050001
v 0.000000 -0.000000 -1.050001
v -2.100000 0.000001 1.049999
v -2.100000 0.000001 1.049999
v -2.100000 6.300001 1.049999
v -2.100000 6.300001 1.049999
v -2.100000 6.300001 -1.050001
v -2.100000 6.300001 -1.050001
v -2.100000 0.000001 -1.050001
v -2.100000 0.000001 -1.050001
v 2.100000 16.799999 -2.100001
v 2.100000 16.799999 -2.100001
v 2.100000 16.799999 2.099999
v 2.100000 16.799999 2.099999
v 2.100000 12.599998 2.099999
v 2.100000 12.599998 2.099999
v 2.100000 12.599998 -2.100001
v 2.100000 12.599998 -2.100001
v -2.100000 16.799999 2.099999
v -2.100000 16.799999 2.099999
v -2.100000 12.599998 2.099999
v -2.100000 12.599998 2.099999
v -2.100000 16.799999 -2.100001
v -2.100000 16.799999 -2.100001
v -2.100000 12.599998 -2.100001
v -2.100000 12.599998 -2.100001
v 2.100000 12.599998 -1.050001
v 2.100000 12.599998 -1.050001
v 2.100000 12.599998 1.049999
v 2.100000 12.599998 1.049999
v 2.100000 6.300000 1.049999
v 2.100000 6.300000 1.049999
v 2.100000 6.300000 -1.050001
v 2.100000 6.300000 -1.050001
v 4.200000 12.599998 1.049999
v 4.200000 12.599998 1.049999
v 4.200000 6.300000 1.049999
v 4.200000 6.300000 1.049999
v 4.200000 12.599998 -1.050001
v 4.200000 12.599998 -1.050001
v 4.200000 6.300000 -1.050001
v 4.200000 6.300000 -1.050001
v 0.000000 6.300000 1.049999
v 0.000000 6.300000 1.049999
v -0.000000 6.300000 1.049999
v -0.000000 6.300000 1.049999
v 2.100000 6.300001 1.049999
v 2.100000 6.300001 1.049999
v -0.000000 -0.000000 1.049999
v -0.000000 -0.000000 1.049999
v 0.000000 6.300000 -1.050001
v 0.000000 6.300000 -1.050001
v 2.100000 0.000001 1.049999
v 2.100000 0.000001 1.049999
v 0.000000 0.000000 -1.050001
v 0.000000 0.000000 -1.050001
v 2.100000 0.000001 -1.050001
v 2.100000 0.000001 -1.050001
v 2.100000 6.300001 -1.050001
v 2.100000 6.300001 -1.050001
v -0.000000 6.300000 -1.050001
v -0.000000 6.300000 -1.050001
v 2.300000 17.000000 -2.300001
v 2.300000 17.000000 -2.300001
v 2.300000 17.000000 2.299999
v 2.300000 17.000000 2.299999
v 2.300000 12.400000 2.299999
v 2.300000 12.400000 2.299999
v 2.300000 12.400000 -2.300001
v 2.300000 12.400000 -2.300001
v -2.300000 17.000000 2.299999
v -2.300000 17.000000 2.299999
v -2.300000 12.400000 2.299999
v -2.300000 12.400000 2.299999
v -2.300000 17.000000 -2.300001
v -2.300000 17.000000 -2.300001
v -2.300000 12.400000 -2.300001
v -2.300000 12.400000 -2.300001
vn -0.0000 -0.0000 1.0000
vn -1.0000 -0.0000 -0.0000
vn -0.0000 -0.0000 -1.0000
vn -0.0000 -1.0000 -0.0000
vn -0.0000 1.0000 -0.0000
vn 1.0000 -0.0000 -0.0000
vt 0.625000 0.375000
vt 0.500000 0.375000
vt 0.500000 0.000000
vt 0.625000 0.000000
vt 0.437500 0.375000
vt 0.437500 0.000000
vt 0.312500 0.375000
vt 0.312500 0.000000
vt 0.562500 0.375000
vt 0.562500 0.500000
vt 0.437500 0.500000
vt 0.312500 0.500000
vt 0.125000 0.375000
vt 0.125000 0.000000
vt 0.187500 0.000000
vt 0.187500 0.375000
vt 0.812500 0.375000
vt 0.875000 0.375000
vt 0.875000 0.000000
vt 0.812500 0.000000
vt 0.750000 0.375000
vt 0.750000 0.000000
vt 0.187500 0.500000
vt 0.125000 0.500000
vt 0.000000 0.375000
vt 0.062500 0.375000
vt 0.062500 0.000000
vt 0.000000 0.000000
vt 0.500000 0.750000
vt 0.375000 0.750000
vt 0.375000 0.500000
vt 0.500000 0.500000
vt 0.250000 0.750000
vt 0.250000 0.500000
vt 0.125000 0.750000
vt 0.375000 1.000000
vt 0.250000 1.000000
vt 0.125000 1.000000
vt 0.250000 0.375000
vt 0.250000 0.000000
vt 0.812500 0.500000
vt 0.750000 0.500000
vt 0.687500 0.375000
vt 0.687500 0.500000
vt 0.000000 0.750000
vt 0.000000 0.500000
vt 0.062500 0.500000
vt 0.687500 0.000000
vt 1.000000 0.750000
vt 0.875000 0.750000
vt 0.875000 0.500000
vt 1.000000 0.500000
vt 0.750000 0.750000
vt 0.625000 0.750000
vt 0.625000 0.500000
vt 0.875000 1.000000
vt 0.750000 1.000000
vt 0.625000 1.000000
s 0
usemtl Character
f 59/1/1 3/2/1 1/3/1 22/4/1
f 65/2/2 4/5/2 2/6/2 67/3/2
f 69/5/3 57/7/3 63/8/3 71/6/3
f 21/9/4 61/10/4 68/11/4 72/5/4
f 70/5/5 66/11/5 24/12/5 23/7/5
f 48/13/2 145/14/2 46/15/2 135/16/2
f 7/17/1 6/18/1 10/19/1 11/20/1
f 8/21/6 77/17/6 79/20/6 12/22/6
f 33/16/4 34/23/4 13/24/4 14/13/4
f 15/25/2 16/26/2 99/27/2 93/28/2
f 103/29/1 19/30/1 17/31/1 38/32/1
f 109/30/2 20/33/2 18/34/2 111/31/2
f 113/33/3 101/35/3 107/24/3 115/34/3
f 37/30/4 105/36/4 112/37/4 116/33/4
f 114/33/5 110/37/5 40/38/5 39/35/5
f 35/16/1 95/39/1 94/40/1 89/15/1
f 149/26/3 43/27/3 45/14/3 151/13/3
f 97/26/3 141/13/3 91/14/3 100/27/3
f 25/21/4 28/17/4 27/41/4 26/42/4
f 32/43/5 29/21/5 30/42/5 31/44/5
f 47/16/1 139/15/1 44/40/1 42/39/1
f 36/13/6 133/16/6 90/15/6 92/14/6
f 137/25/6 143/28/6 147/27/6 41/26/6
f 60/39/6 62/40/6 64/8/6 58/7/6
f 104/45/6 106/46/6 108/24/6 102/35/6
f 98/13/5 96/24/5 134/47/5 142/26/5
f 5/43/3 85/21/3 87/22/3 9/48/3
f 81/1/2 73/43/2 75/48/2 83/4/2
f 125/1/6 127/4/6 131/48/6 129/43/6
f 74/43/5 82/44/5 78/42/5 86/21/5
f 130/43/3 132/48/3 123/22/3 117/21/3
f 146/16/4 148/13/4 144/24/4 140/23/4
f 118/21/2 124/22/2 121/20/2 119/17/2
f 88/21/4 80/42/4 84/41/4 76/17/4
f 120/17/1 122/20/1 128/19/1 126/18/1
f 150/13/5 152/26/5 136/47/5 138/24/5
f 155/49/1 51/50/1 49/51/1 54/52/1
f 161/50/2 52/53/2 50/42/2 163/51/2
f 165/53/3 153/54/3 159/55/3 167/42/3
f 53/50/4 157/56/4 164/57/4 168/53/4
f 166/53/5 162/57/5 56/58/5 55/54/5
f 156/29/6 158/32/6 160/55/6 154/54/6
