{"asset":{"version":"2.0","generator":"Blockbench 5.1.6 glTF exporter"},"scenes":[{"nodes":[0],"name":"blockbench_export"}],"scene":0,"nodes":[{"translation":[0,1.25,0],"name":"magic_item_floater"}],"animations":[{"name":"item_spin","samplers":[{"input":0,"output":1,"interpolation":"LINEAR"},{"input":2,"output":3,"interpolation":"LINEAR"}],"channels":[{"sampler":0,"target":{"node":0,"path":"rotation"}},{"sampler":1,"target":{"node":0,"path":"translation"}}]}],"bufferViews":[{"buffer":0,"byteOffset":0,"byteLength":16},{"buffer":0,"byteOffset":16,"byteLength":64},{"buffer":0,"byteOffset":80,"byteLength":148},{"buffer":0,"byteOffset":228,"byteLength":444}],"buffers":[{"byteLength":672,"uri":"data:application/octet-stream;base64,"}],"accessors":[{"bufferView":0,"componentType":5126,"count":4,"max":[2],"min":[0],"type":"SCALAR"},{"bufferView":1,"componentType":5126,"count":4,"max":[0,0,0,1],"min":[0,-0.8660253882408142,0,-1],"type":"VEC4"},{"bufferView":2,"componentType":5126,"count":37,"max":[2],"min":[0],"type":"SCALAR"},{"bufferView":3,"componentType":5126,"count":37,"max":[0,8.125,0],"min":[0,1.875,0],"type":"VEC3"}]}